<svg xmlns="http://www.w3.org/2000/svg" id="Layer_2" data-name="Layer 2" viewBox="0 0 200 180"><defs><style>.cls-1{fill:#ed1c24}</style></defs><g id="Layer_9" data-name="Layer 9"><path d="m190.11 153.22-25.38 25.38c-.43.43-.78.9-1.08 1.4H175c13.81 0 25-11.19 25-25v-2.03a7.18 7.18 0 0 0-9.89.25M182.52 123.35l5.93 5.93a7.176 7.176 0 0 0 10.16 0l1.39-1.39V95.71l-17.48 17.48a7.176 7.176 0 0 0 0 10.16" class="cls-1"/><rect width="50.27" height="22.76" x="136.52" y="138.77" class="cls-1" rx="7.18" ry="7.18" transform="rotate(-45 161.663 150.147)"/><path d="M134.86 171.01a7.176 7.176 0 0 0-10.16 0l-8.99 8.99h26.9a7.2 7.2 0 0 0-1.81-3.06l-5.93-5.93ZM116.57 152.72l-5.93-5.93a7.176 7.176 0 0 0-10.16 0L75.1 172.17c-2.12 2.12-2.63 5.23-1.56 7.83h25.91l17.12-17.12a7.176 7.176 0 0 0 0-10.16M150.97 108.07l-27.88 16.09-6.4 6.4a7.176 7.176 0 0 0 0 10.16l5.93 5.93a7.176 7.176 0 0 0 10.16 0l25.38-25.38a7.176 7.176 0 0 0 0-10.16l-4.73-4.73c-.78.61-1.6 1.18-2.47 1.68ZM189.66 89.79h-.43l.22.21zM158.95 99.78l5.28 5.28a7.176 7.176 0 0 0 10.16 0l14.85-14.85h-27.83c-.03 3.39-.9 6.66-2.45 9.57ZM109.86 90.21l-.21-.21-16.76 16.76c-.14.14-.27.29-.4.44l29.42-16.99zM59.46 157.67c-3.48 0-6.96-.87-10.09-2.6.29 1.27.92 2.47 1.91 3.45l5.93 5.93a7.176 7.176 0 0 0 10.16 0l19.19-19.19-16.67 9.63a20.87 20.87 0 0 1-10.44 2.79ZM51.16 170.51l-5.93-5.93a7.176 7.176 0 0 0-10.16 0l-14.95 14.95c1.58.31 3.21.48 4.88.48h26.74c2.2-2.82 2.01-6.9-.58-9.49ZM38.59 112.6l-11.53 11.53a7.176 7.176 0 0 0 0 10.16l5.93 5.93a7.16 7.16 0 0 0 6.32 1.99c-.47-1.74-.72-3.56-.72-5.41v-24.21ZM68.59 104.74v10.03a7.165 7.165 0 0 0 0-10.03M74.59 98.63a7.176 7.176 0 0 0 10.16 0l8.41-8.41H68.59v2.41s.04.05.07.08l5.93 5.93ZM93.59 89.79h-.42l.21.21zM26.94 146.28l-5.93-5.93a7.176 7.176 0 0 0-10.16 0L.01 151.19v3.8c0 7.76 3.54 14.7 9.09 19.29l17.84-17.84a7.176 7.176 0 0 0 0-10.16M13.79 90.21l-.21-.21-10.32 10.32a7.176 7.176 0 0 0 0 10.16l5.93 5.93a7.176 7.176 0 0 0 10.16 0L38.6 97.16v-6.95zM3.13 122.47 0 119.34v16.41l3.13-3.13a7.176 7.176 0 0 0 0-10.16Z" class="cls-1"/><path d="M38.59 90.21v-7.38L19.34 63.58a7.176 7.176 0 0 0-10.16 0l-5.93 5.93a7.176 7.176 0 0 0 0 10.16l10.32 10.32.21.21h24.8ZM3.13 47.37 0 44.24v16.41l3.13-3.13a7.176 7.176 0 0 0 0-10.16ZM39.31 37.78c-2.23-.39-4.6.27-6.32 1.99l-5.93 5.93a7.176 7.176 0 0 0 0 10.16l11.53 11.53V43.18c0-1.85.25-3.67.72-5.41ZM68.59 65.22v10.03a7.165 7.165 0 0 0 0-10.03M93.17 90.21h.43l-.21-.21-.21-.21-8.41-8.41a7.176 7.176 0 0 0-10.16 0l-5.93 5.93s-.04.05-.07.08v2.83h24.57ZM21 39.65l5.93-5.93a7.176 7.176 0 0 0 0-10.16L9.09 5.71C3.54 10.3 0 17.24 0 25v3.8l10.84 10.84a7.176 7.176 0 0 0 10.16 0ZM109.64 90l.21.21h12.05l.37-.21-29.79-17.2c.13.15.26.3.4.44zM69.9 25.12l16.67 9.63-19.19-19.19a7.176 7.176 0 0 0-10.16 0l-5.93 5.93c-.99.99-1.62 2.19-1.91 3.45 6.38-3.52 14.2-3.47 20.52.18M45.23 15.42l5.93-5.93c2.59-2.59 2.78-6.67.58-9.49H25c-1.67 0-3.3.17-4.88.48l14.95 14.95a7.176 7.176 0 0 0 10.16 0ZM75.09 7.83l25.38 25.38a7.176 7.176 0 0 0 10.16 0l5.93-5.93a7.176 7.176 0 0 0 0-10.16L99.45 0H73.54a7.18 7.18 0 0 0 1.56 7.83ZM153.45 73.61l4.73-4.73a7.176 7.176 0 0 0 0-10.16L132.8 33.34a7.176 7.176 0 0 0-10.16 0l-5.93 5.93a7.176 7.176 0 0 0 0 10.16l6.4 6.4 27.88 16.09c.87.5 1.69 1.07 2.47 1.68ZM164.23 74.94l-5.28 5.28c1.58 2.97 2.46 6.32 2.46 9.78v.21h28.26l-.21-.21-.21-.21-14.85-14.85a7.176 7.176 0 0 0-10.16 0ZM188.45 50.72l-5.93 5.93a7.176 7.176 0 0 0 0 10.16L200 84.29V52.11l-1.39-1.39a7.176 7.176 0 0 0-10.16 0" class="cls-1"/><rect width="22.76" height="50.27" x="150.28" y="4.72" class="cls-1" rx="7.18" ry="7.18" transform="rotate(-45 161.654 29.85)"/><path d="m134.86 8.99 5.93-5.93c.88-.88 1.49-1.94 1.81-3.06h-26.9l8.99 8.99a7.176 7.176 0 0 0 10.16 0ZM175 0h-11.35c.3.5.65.97 1.08 1.4l25.38 25.38c2.72 2.72 7.07 2.79 9.89.25V25c0-13.81-11.19-25-25-25M143.47 95.08 62.4 141.89c-3.91 2.26-8.81-.56-8.81-5.08V43.19c0-4.52 4.89-7.34 8.81-5.08l81.07 46.81c3.91 2.26 3.91 7.91 0 10.17Z" class="cls-1"/></g></svg>